<svg id="Capa_1" enable-background="new 0 0 524.235 524.235" height="512" viewBox="0 0 524.235 524.235" width="512" xmlns="http://www.w3.org/2000/svg"><path d="m517.036 51.963c-4.512-3.04-10.287-3.68-15.262-1.648l-157.744 63.098-157.745-63.098c-3.904-1.568-8.255-1.568-12.159 0l-163.823 65.529c-6.223 2.496-10.303 8.511-10.303 15.215v327.647c0 5.439 2.704 10.511 7.199 13.567 2.752 1.856 5.951 2.816 9.183 2.816 2.064 0 4.128-.384 6.079-1.168l157.744-63.098 157.745 63.097c3.904 1.568 8.255 1.568 12.159 0l163.823-65.529c6.223-2.496 10.303-8.511 10.303-15.214v-327.648c0-5.439-2.704-10.511-7.199-13.566zm-320.448 37.766 131.059 52.423v292.354l-131.059-52.423zm-163.823 52.417 131.059-52.419v292.356l-131.059 52.433zm458.705 239.943-131.059 52.419v-292.357l131.059-52.432z"/></svg>